<svg xmlns="http://www.w3.org/2000/svg" viewBox="0 0 472.18 530.97"><title>fake-news_1</title><g style="isolation:isolate"><rect x="47.82" y="3" width="373.56" height="524.97" rx="13.95" ry="13.95" style="fill:#fcfcfc;stroke:#d3d3d3;stroke-miterlimit:10;stroke-width:6px"/><text transform="translate(120.53 115.55)" style="font-size:77.4071273803711px;fill:#444;font-family:Lato-HeavyItalic, Lato;font-style:italic">NE<tspan x="97.26" y="0" style="letter-spacing:-0.00999181246191198em">W</tspan><tspan x="171.88" y="0">S</tspan></text><line x1="103.04" y1="140.47" x2="350.09" y2="140.47" style="fill:none;stroke:#444;stroke-miterlimit:10;stroke-width:20px"/><line x1="74.71" y1="192.77" x2="214.17" y2="192.77" style="fill:none;stroke:#444;stroke-miterlimit:10;stroke-width:10px"/><line x1="74.71" y1="228.63" x2="214.17" y2="228.63" style="fill:none;stroke:#d1d1d1;stroke-miterlimit:10;stroke-width:13px"/><line x1="74.71" y1="261.5" x2="214.17" y2="261.5" style="fill:none;stroke:#d1d1d1;stroke-miterlimit:10;stroke-width:13px"/><line x1="108.61" y1="385.02" x2="180.28" y2="385.02" style="fill:none;stroke:#d1d1d1;stroke-miterlimit:10;stroke-width:13px"/><rect x="74.71" y="288.4" width="139.46" height="68.73" style="fill:#444"/><line x1="74.71" y1="415.91" x2="214.17" y2="415.91" style="fill:none;stroke:#d1d1d1;stroke-miterlimit:10;stroke-width:13px"/><line x1="247.05" y1="222.65" x2="386.51" y2="222.65" style="fill:none;stroke:#d1d1d1;stroke-miterlimit:10;stroke-width:13px"/><rect x="247.32" y="249.55" width="138.91" height="115.06" style="fill:#adadad"/><rect x="74.99" y="441.81" width="59.49" height="58.27" style="fill:#ccc"/><line x1="154.4" y1="447.78" x2="214.17" y2="447.78" style="fill:none;stroke:#d1d1d1;stroke-miterlimit:10;stroke-width:13px"/><line x1="154.4" y1="470.69" x2="214.17" y2="470.69" style="fill:none;stroke:#d1d1d1;stroke-miterlimit:10;stroke-width:13px"/><line x1="154.4" y1="493.61" x2="214.17" y2="493.61" style="fill:none;stroke:#d1d1d1;stroke-miterlimit:10;stroke-width:13px"/><line x1="247.32" y1="392" x2="386.23" y2="392" style="fill:none;stroke:#444;stroke-miterlimit:10;stroke-width:13px"/><line x1="247.87" y1="427.86" x2="386.51" y2="427.86" style="fill:none;stroke:#d1d1d1;stroke-miterlimit:10;stroke-width:13px"/><line x1="247.87" y1="460.73" x2="386.51" y2="460.73" style="fill:none;stroke:#d1d1d1;stroke-miterlimit:10;stroke-width:13px"/><line x1="247.87" y1="493.61" x2="386.51" y2="493.61" style="fill:none;stroke:#d1d1d1;stroke-miterlimit:10;stroke-width:13px"/><circle cx="289.38" cy="187.79" r="11.46" style="fill:#adadad"/><circle cx="329.23" cy="187.79" r="11.46" style="fill:#adadad"/><circle cx="369.08" cy="187.79" r="11.46" style="fill:#adadad"/><path d="M384.5,365.79c-15.48,0-19.61,7.2-19.61,7.2,22.71,0,27.87,9.5,27.87,16.7s-1.38,15.49-19.27,15.49c-26.15,0-60.66-58.21-97.72-59-31.65-.67-39.68,16-39.68,16s-8-16.67-39.68-16c-37.06.78-71.57,59-97.73,59-17.89,0-19.26-8.29-19.26-15.49S84.58,373,107.29,373c0,0-4.13-7.2-19.62-7.2S60.49,376.27,60.49,392,76,436.82,132.75,436.82s94.51-29.46,103.34-50.08c8.83,20.62,46.56,50.08,103.34,50.08s72.26-29.13,72.26-44.84S400,365.79,384.5,365.79Z" style="fill:#212120"/><path d="M311.42,320.94c-5.07-24.57-31.32-33.08-33.43-35.1s-3.81-18-8.89-52.68c-7.36-50.16-23.28-63.62-33-63.62s-25.66,13.46-33,63.62c-5.08,34.63-6.78,50.67-8.89,52.68s-28.36,10.53-33.44,35.1,11,26.17,18.62,28.58,22-.8,27.5,0,16.52,12.89,29.22,12.89,23.7-12.08,29.21-12.89,19.88,2.42,27.5,0S316.5,345.5,311.42,320.94Z" style="fill:#f3ad8f"/><path d="M252.6,288.15c-1.38-16.51-4.69-39.74-5.72-52.53-2.95-36.68-4.83-66.61-10.79-66.61s-7.91,29.93-10.8,66.61c-1.11,14.17-4.4,37.31-5.3,52.29a27.77,27.77,0,0,0-13.46,23.57c0,15.53,13.23,28.12,29.56,28.12s29.56-12.59,29.56-28.12A27.76,27.76,0,0,0,252.6,288.15Z" style="fill:#f1bda6"/><ellipse cx="236.09" cy="311.48" rx="20.23" ry="19.24" style="fill:#f1c8b6"/><path d="M242.9,304.82A10.91,10.91,0,1,1,232,294.46,10.64,10.64,0,0,1,242.9,304.82Z" style="fill:#f2d5c8"/><path d="M181.73,338.31s8.17-13.23,24.22-3.89C212.06,338,220.53,350,236.87,350s28-20.66,43.76-19.25c13.42,1.21,10.21,10.92,10.21,10.92s-2.2-4.16-8.46-3.89c-12.84.56-26.4,22.76-46.24,22.76S206,341.36,196.32,338.59,181.73,338.31,181.73,338.31Z" style="fill:#cf9f8f;opacity:0.6000000000000001;mix-blend-mode:multiply"/><path d="M265.3,347.91s18.2-9.48,21.15-7.45c1.39,1,2.54,4-4,5S274.76,343.94,265.3,347.91Z" style="fill:#ad7360"/><path d="M206.87,347.91s-18.2-9.48-21.15-7.45c-1.39,1-2.54,4,4,5S197.42,343.94,206.87,347.91Z" style="fill:#ad7360"/><path d="M281,148.27a67.8,67.8,0,0,1,5.51-19.84,39.73,39.73,0,0,1,17.11-18.3c-3.15,5.33-6.25,9.34-4.92,9.07,3.93-4.49,9.73-9.93,12.1-10.19-.46,1.93-2.56,5.52-1.38,6.45,4.13-4.11,9.41-8.36,12.88-9.17-.64,1.19-2.3,3.92-1.31,3.81,7-.81,9.56-1,11.93-1.25,34.22-3.87,128.75-3.74,139.24-14.72,0,0-2.1,11.73-19,16.34a12.15,12.15,0,0,0,11-.25s-3.54,6.11-21.11,10.36c0,0,8.65,2.49,16-1.25-5,9.48-21.77,11.85-35.53,14.09s-73.56,3.74-101.48,8.24Z" style="fill:#212120"/><path d="M191.16,148.27a67.8,67.8,0,0,0-5.51-19.84,39.73,39.73,0,0,0-17.11-18.3c3.15,5.33,6.25,9.34,4.92,9.07-3.94-4.49-9.73-9.93-12.1-10.19.46,1.93,2.56,5.52,1.38,6.45-4.13-4.11-9.41-8.36-12.88-9.17.64,1.19,2.29,3.92,1.31,3.81-7-.81-9.56-1-11.93-1.25C105,105,10.49,105.11,0,94.13c0,0,2.1,11.73,19,16.34a12.15,12.15,0,0,1-11-.25s3.54,6.11,21.11,10.36c0,0-8.66,2.49-16-1.25,5,9.48,21.76,11.85,35.53,14.09s73.55,3.74,101.48,8.24Z" style="fill:#212120"/><path d="M471.87,145.22c-.81.17-24.33-5.18-38.52-7.11-44.73-6.08-78.36-4.34-121.24,2.6s-54.73,15.34-61.73,15.34H221.8c-7,0-18.86-8.39-61.74-15.34s-76.5-8.68-121.23-2.6C24.63,140,1.12,145.39.31,145.22s.4,18,5.27,23.37,14.19,12.72,15.81,24.3,4.46,37.8,17.44,57.09c8,11.82,32.82,25.9,70.55,25.46,32.84-.39,44.6-1.16,65.28-16.2S207.74,201.7,214,189.8c7.3-13.89,22.1-14.27,22.1-14.27s14.8.38,22.1,14.27c6.25,11.9,18.65,54.39,39.33,69.44s32.44,15.81,65.28,16.2c37.72.44,62.59-13.64,70.55-25.46,13-19.29,15.81-45.52,17.44-57.09s10.94-18.9,15.81-24.3S472.68,145.05,471.87,145.22ZM176.28,239.56a51.5,51.5,0,0,1-37.71,22.38c-20.27,1.92-39.48,2.31-52.71-.39-22.71-4.63-36.09-16.2-41.76-30.09s-10.55-45.9-9.33-61.72c.68-8.85,9.4-12.37,20.68-16.2s32-7.33,52.71-6.56c18.27.68,20.68.77,36.09,2.7,27.18,3.41,52.3,16.59,52.3,36.65C196.55,201.37,184.39,227.6,176.28,239.56Zm251.8-8.1c-5.68,13.89-19.06,25.46-41.76,30.09-13.24,2.7-32.44,2.31-52.72.39a51.5,51.5,0,0,1-37.7-22.38c-8.11-12-20.28-38.19-20.28-53.23,0-20.06,25.13-33.24,52.31-36.65,15.41-1.93,17.81-2,36.08-2.7,20.68-.77,41.36,2.7,52.72,6.56s20,7.35,20.68,16.2C438.62,185.56,433.76,217.58,428.08,231.46Z" style="fill:#212120"/><path d="M236.18,157.53c3.8,0,10.49,0,14.95.75,0,0-7.74.68-14.95.68s-14.42-.68-14.42-.68S232.38,157.53,236.18,157.53Z" style="fill:#898989"/><path d="M28.77,142.78s56.9-15.22,137.92.75C166.69,143.53,92,135,28.77,142.78Z" style="fill:#898989"/><path d="M446.22,142.78s-56.9-15.22-137.93.75C308.29,143.53,383,135,446.22,142.78Z" style="fill:#898989"/><path d="M22.8,190.86s1.58,40.23,19.28,61c0,0-3.38-3.67-8.85-21.89C27.33,210.32,22.8,190.86,22.8,190.86Z" style="fill:#898989"/><path d="M264.76,197.08s9,39.32,30.29,56.79c0,0-4-3.05-12.77-20.06C272.82,215.47,264.76,197.08,264.76,197.08Z" style="fill:#898989"/></g></svg>