<svg xmlns="http://www.w3.org/2000/svg" viewBox="0 0 75 74.9"><title>pie5_1</title><path d="M8.32,61A37.47,37.47,0,0,0,21.84,71.48,38.36,38.36,0,0,0,37.56,74.9L37.5,37.41Z" style="fill:#ea5353"/><path d="M12.5,9.47A37.48,37.48,0,0,0,8.36,61L37.49,37.41Z" style="fill:#ec6666"/><path d="M74.8,33.59,37.51,37.42l.06,37.48A37.46,37.46,0,0,0,74.8,33.59Z" style="fill:#e84040"/><path d="M73.28,26.17A37.45,37.45,0,0,0,46.27,1L37.5,37.39h0l37.3-3.79A37.67,37.67,0,0,0,73.28,26.17Z" style="fill:#f18c8c"/><path d="M37.5,37.39h0L46.25.9C33.42-1.6,21.84,1,12.38,9.56L37.49,37.39h0Z" style="fill:#ee7979"/></svg>
