<svg xmlns="http://www.w3.org/2000/svg" viewBox="0 0 168.86 340.34"><title>Woman</title><circle cx="84.43" cy="28.33" r="28.33" transform="translate(-4.63 28) rotate(-18.34)" style="fill: #3a3a3a;"/><path d="M168.42,168.89,143.88,86.5C138,68.71,117.32,66,117.32,66H51.54S30.85,68.71,25,86.5L.44,168.89c-1.84,6.23,2.23,12.63,9.09,14.3a14.1,14.1,0,0,0,3.33.4c5.68,0,10.87-3.44,12.41-8.66L45,107.87h5.61l-34,125.82H49.47v91.83c0,8.19,7.27,14.82,16.24,14.82s15.22-6.4,15.47-14.38V233.69h6.48V326c.25,8,6.65,14.38,15.47,14.38s16.24-6.63,16.24-14.82V233.69h32.82l-34-125.82h5.61l19.77,67.06c1.54,5.22,6.73,8.66,12.41,8.66a14.16,14.16,0,0,0,3.33-.4C166.19,181.52,170.26,175.12,168.42,168.89Z" style="fill: #3a3a3a;"/></svg>
